<?xml version="1.0" encoding="UTF-8"?>
<svg width="294px" height="294px" viewBox="0 0 294 294" version="1.1" xmlns="http://www.w3.org/2000/svg" xmlns:xlink="http://www.w3.org/1999/xlink">
    <!-- Generator: Sketch 52.6 (67491) - http://www.bohemiancoding.com/sketch -->
    <title>iconfinder_coronavirus-virus-covid19-corona-cell_6135473</title>
    <desc>Created with Sketch.</desc>
    <g id="Page-1" stroke="none" stroke-width="1" fill="none" fill-rule="evenodd">
        <g id="iconfinder_coronavirus-virus-covid19-corona-cell_6135473">
            <path d="M196.884971,61.9979567 C158.45317,39.9927094 109.957508,46.4028427 78.6346752,77.6282241 C47.3118425,108.853605 40.9676319,157.112727 63.1651517,195.301748 C85.3626715,233.49077 130.570198,252.092811 173.397763,240.660382 C216.225327,229.227953 246.000105,190.610066 245.999644,146.495742 C246.094278,111.592088 227.339949,79.326795 196.884971,61.9979567 Z M98.7734074,151.378031 C93.3526871,151.378031 88.958325,147.006281 88.958325,141.613452 C88.958325,136.220624 93.3526871,131.848873 98.7734074,131.848873 C104.194128,131.848873 108.58849,136.220624 108.58849,141.613452 C108.58849,147.006281 104.194128,151.378031 98.7734074,151.378031 Z M123.311113,107.437426 C123.311113,102.044597 127.705476,97.6728464 133.126196,97.6728464 C138.546916,97.6728464 142.941278,102.044597 142.941278,107.437426 C142.941278,112.830254 138.546916,117.202005 133.126196,117.202005 C127.705476,117.202005 123.311113,112.830254 123.311113,107.437426 Z M138.033737,195.318637 C132.613017,195.318637 128.218655,190.946886 128.218655,185.554058 C128.218655,180.16123 132.613017,175.789479 138.033737,175.789479 C143.454457,175.789479 147.848819,180.16123 147.848819,185.554058 C147.848819,190.946886 143.454457,195.318637 138.033737,195.318637 Z M147.848819,156.260321 C142.428099,156.260321 138.033737,151.88857 138.033737,146.495742 C138.033737,141.102914 142.428099,136.731163 147.848819,136.731163 C153.26954,136.731163 157.663902,141.102914 157.663902,146.495742 C157.663902,151.88857 153.26954,156.260321 147.848819,156.260321 Z M172.386525,117.202005 C172.386525,111.809177 176.780888,107.437426 182.201608,107.437426 C187.622328,107.437426 192.01669,111.809177 192.01669,117.202005 C192.01669,122.594833 187.622328,126.966584 182.201608,126.966584 C176.780888,126.966584 172.386525,122.594833 172.386525,117.202005 Z M187.109149,180.671769 C181.688429,180.671769 177.294067,176.300018 177.294067,170.90719 C177.294067,165.514362 181.688429,161.142611 187.109149,161.142611 C192.529869,161.142611 196.924231,165.514362 196.924231,170.90719 C196.924231,176.300018 192.529869,180.671769 187.109149,180.671769 Z" id="Shape" fill-rule="nonzero"></path>
            <path d="M152.33288,28.4552418 C158.990398,26.0774587 162.98393,19.2003194 161.789839,12.1697005 C160.595748,5.13908158 154.561364,2.1681091e-15 147.5,0 C140.438636,-2.1681091e-15 134.404252,5.13908158 133.210161,12.1697005 C132.01607,19.2003194 136.009602,26.0774587 142.66712,28.4552418 L142.66712,44 L152.33288,44 L152.33288,28.4552418 Z M147.5,9.82496638 C150.169126,9.82496638 152.33288,12.0107783 152.33288,14.707114 C152.33288,17.4034497 150.169126,19.5892617 147.5,19.5892617 C144.830874,19.5892617 142.66712,17.4034497 142.66712,14.707114 C142.66712,12.0107783 144.830874,9.82496638 147.5,9.82496638 Z" id="Shape" fill="#906DE4" fill-rule="nonzero"></path>
            <path d="M249.607596,151.809861 L265.452533,151.809861 C267.838022,158.561229 274.737451,162.611056 281.790857,161.400133 C288.844262,160.189209 294,154.06976 294,146.908853 C294,139.747947 288.844262,133.628497 281.790857,132.417574 C274.737451,131.20665 267.838022,135.256478 265.452533,142.007845 L249.607596,142.007845 C248.944036,127.289528 245.100725,112.889911 238.342263,99.8003638 L264.747225,84.5435257 C269.448035,88.6206806 276.219108,89.2568471 281.596245,86.1265513 C288.141434,82.417399 290.846452,74.3725389 287.873094,67.4588836 C284.899737,60.5452284 277.201573,56.9800175 270.009916,59.1860025 C262.81826,61.3919874 258.439507,68.6616991 259.849254,76.0549798 L233.429598,91.3167188 C225.45146,78.9490559 214.932379,68.423453 202.57238,60.4403681 L208.058107,50.9324125 C214.169552,52.3080156 220.448667,49.4429954 223.418145,43.923971 C227.182609,37.4570968 225.4918,29.1926121 219.490516,24.7261652 C213.489232,20.2597183 205.092582,21.0166267 199.985701,26.4844092 C194.87882,31.9521917 194.691397,40.3859879 199.550332,46.0755135 L194.093992,55.5295581 C164.584578,40.1701056 129.44481,40.1701056 99.9353959,55.5295581 L94.4790561,46.0804145 C99.8643051,40.2201982 100.177962,31.3071893 95.2179933,25.0824636 C90.2580246,18.8577379 81.5044052,17.1786536 74.5955443,21.1267477 C67.6866834,25.0748419 64.6840742,33.4720666 67.5217668,40.9095749 C70.3594595,48.3470831 78.1907321,52.6056418 85.9712804,50.9422145 L91.457008,60.4501701 C79.0958721,68.4318463 68.5765204,78.9577205 60.5997902,91.3265208 L34.1507464,76.0598808 C35.5560891,68.9220817 31.607816,61.811626 24.8084717,59.2353529 C18.0091275,56.6590798 10.3443851,59.3693614 6.67240876,65.6483325 C3.00043247,71.9273036 4.39358224,79.9412604 9.96883421,84.6106952 C15.5440862,89.28013 23.6732498,89.2413861 29.2037956,84.5190207 L55.6528394,99.8003638 C48.8960784,112.890299 45.0544435,127.289896 44.3924039,142.007845 L28.5474675,142.007845 C26.1619778,135.256478 19.2625491,131.20665 12.2091434,132.417574 C5.15573774,133.628497 -2.17513611e-15,139.747947 0,146.908853 C2.17513611e-15,154.06976 5.15573774,160.189209 12.2091434,161.400133 C19.2625491,162.611056 26.1619778,158.561229 28.5474675,151.809861 L44.3924039,151.809861 C45.0559641,166.528179 48.8992752,180.927795 55.6577374,194.017342 L29.2429794,209.279082 C23.8034535,204.625723 15.804685,204.570378 10.3013668,209.14802 C4.79804853,213.725662 3.39095708,221.604772 6.96928118,227.806272 C10.5476053,234.007772 18.0705006,236.727803 24.7839948,234.247485 C31.497489,231.767167 35.4487957,224.807962 34.1409504,217.767627 L60.5899943,202.500987 C68.5667245,214.869788 79.0860762,225.395662 91.447212,233.377338 L85.9859743,242.846086 C78.9500024,241.537429 71.9951098,245.491186 69.5163288,252.208843 C67.0375477,258.9265 69.7558931,266.45406 75.9535504,270.034603 C82.1512078,273.615145 90.0254347,272.207182 94.6002405,266.700451 C99.1750462,261.19372 99.1197352,253.189992 94.4692602,247.747094 L99.9256,238.29795 C113.005843,245.06056 127.394215,248.909424 142.102029,249.580071 L142.102029,265.434832 C135.354845,267.821801 131.307527,274.725507 132.5177,281.783286 C133.727873,288.841065 139.843531,294 147,294 C154.156469,294 160.272127,288.841065 161.4823,281.783286 C162.692473,274.725507 158.645155,267.821801 151.897971,265.434832 L151.897971,249.580071 C166.607073,248.915482 180.997636,245.069822 194.079298,238.307752 L199.535638,247.761797 C195.503708,252.479052 194.866703,259.221762 197.943797,264.611462 C201.654584,271.110294 209.652274,273.782534 216.520914,270.818569 C223.389555,267.854604 226.936731,260.200509 224.760332,253.039556 C222.583934,245.878603 215.378649,241.496511 208.023822,242.860789 L202.557686,233.38714 C214.917685,225.404055 225.436766,214.878452 233.414904,202.510789 L259.83456,217.772528 C258.651594,223.889048 261.49402,230.080037 266.902332,233.166595 C273.384937,236.983535 281.699751,235.305352 286.196806,229.272381 C290.693862,223.239411 289.931072,214.786269 284.426756,209.656916 C278.92244,204.527564 270.441689,204.366851 264.747225,209.283983 L238.342263,194.027144 C245.102089,180.934622 248.94544,166.531515 249.607596,151.809861 Z M269.522746,72.1243713 C270.09578,69.980486 272.037005,68.4894377 274.254868,68.4896455 C276.472731,68.4898532 278.413678,69.9812653 278.98631,72.1252579 C279.558942,74.2692504 278.620337,76.5307066 276.698274,77.6380054 C274.356764,78.9879827 271.364983,78.1852937 270.012544,75.8442364 C269.356306,74.7205346 269.179771,73.3798033 269.522746,72.1243713 Z M206.431981,34.1072519 C207.421315,32.3891419 209.347811,31.4368346 211.312665,31.6946273 C213.277519,31.9524201 214.89353,33.3695112 215.406751,35.2847593 C215.919972,37.2000075 215.229265,39.2359866 213.656879,40.4428142 C212.084493,41.6496419 209.940288,41.789496 208.224638,40.7971279 C205.885032,39.4438495 205.08284,36.4502143 206.431981,34.1072519 Z M79.084733,39.0082599 C78.0941415,37.2915788 78.234565,35.146843 79.4405231,33.5741561 C80.6464811,32.0014693 82.6804762,31.3105516 84.5940435,31.8235823 C86.5076109,32.3366129 87.9238985,33.9525573 88.1824826,35.9178904 C88.4410667,37.8832235 87.4910225,39.8108987 85.7753615,40.8020289 C84.6498074,41.4515068 83.3124748,41.6268765 82.0576765,41.2895438 C80.8028782,40.9522111 79.7334454,40.1298204 79.084733,39.0033589 L79.084733,39.0082599 Z M23.9874564,75.8442364 C22.9969404,77.5609612 21.0704597,78.5115944 19.1063445,78.25285 C17.1422292,77.9941056 15.5272862,76.5769398 15.0145734,74.662186 C14.5018606,72.7474321 15.1923502,70.7121759 16.7640625,69.50547 C18.3357748,68.2987642 20.4791816,68.1582537 22.194799,69.1494594 C24.5373426,70.5028747 25.3399299,73.5001808 23.9874564,75.8442364 Z M22.194799,224.668247 C20.678532,225.557703 18.8022219,225.56603 17.2781303,224.690065 C15.7540387,223.814101 14.8158538,222.188157 14.8197177,220.429455 C14.8235817,218.670752 15.768902,217.048951 17.2968279,216.179701 C18.8130949,215.290244 20.689405,215.281918 22.2134966,216.157882 C23.7375882,217.033847 24.6757731,218.65979 24.6719092,220.418493 C24.6680453,222.177196 23.7227249,223.798996 22.194799,224.668247 Z M87.568019,259.715355 C86.3792249,261.775681 83.8833952,262.684167 81.6494738,261.869716 C79.4155524,261.055265 78.0888118,258.753132 78.5032757,256.410498 C78.9177397,254.067865 80.9536896,252.361405 83.331274,252.363843 C85.0802532,252.365637 86.6955627,253.300473 87.5692759,254.816522 C88.442989,256.332571 88.44251,258.199755 87.568019,259.715355 Z M214.915267,254.814347 C215.907425,256.530311 215.768747,258.675362 214.563907,260.249113 C213.359068,261.822863 211.325386,262.515329 209.411311,262.003565 C207.497237,261.4918 206.079787,259.876608 205.820019,257.911266 C205.560251,255.945925 206.509332,254.01755 208.224638,253.025479 C210.564677,251.67052 213.559336,252.469006 214.915267,254.809446 L214.915267,254.814347 Z M270.012544,217.97347 C271.181253,215.948896 273.616429,215.032283 275.828913,215.784157 C278.041398,216.53603 279.415036,218.747002 279.109821,221.065019 C278.804606,223.383036 276.905538,225.162553 274.573933,225.315362 C272.242329,225.46817 270.127517,223.951713 269.522746,221.693335 C269.186436,220.437458 269.362628,219.099329 270.012544,217.97347 Z M279.245219,142.007845 C281.950294,142.007845 284.14319,144.202101 284.14319,146.908853 C284.14319,149.615605 281.950294,151.809861 279.245219,151.809861 C276.540144,151.809861 274.347248,149.615605 274.347248,146.908853 C274.347248,144.202101 276.540144,142.007845 279.245219,142.007845 Z M14.7547809,151.809861 C12.0497062,151.809861 9.85680985,149.615605 9.85680985,146.908853 C9.85680985,144.202101 12.0497062,142.007845 14.7547809,142.007845 C17.4598557,142.007845 19.652752,144.202101 19.652752,146.908853 C19.652752,149.615605 17.4598557,151.809861 14.7547809,151.809861 Z M147,284.137078 C144.294925,284.137078 142.102029,281.942822 142.102029,279.23607 C142.102029,276.529318 144.294925,274.335062 147,274.335062 C149.705075,274.335062 151.897971,276.529318 151.897971,279.23607 C151.897971,281.942822 149.705075,284.137078 147,284.137078 Z M197.664613,224.913297 L185.52744,203.883072 C184.658729,202.354198 183.037933,201.408292 181.28032,201.404426 C179.522707,201.400559 177.897771,202.339326 177.02235,203.864362 C176.146928,205.389399 176.155249,207.266873 177.044155,208.78408 L189.176429,229.809404 C162.707311,243.434298 131.292689,243.434298 104.823571,229.809404 L116.955845,208.78408 C117.844751,207.266873 117.853072,205.389399 116.97765,203.864362 C116.102229,202.339326 114.477293,201.400559 112.71968,201.404426 C110.962067,201.408292 109.341271,202.354198 108.47256,203.883072 L96.3353872,224.913297 C71.4135283,208.689917 55.7483921,181.518964 54.1883461,151.809861 L68.6324628,151.809861 C71.3375375,151.809861 73.5304338,149.615605 73.5304338,146.908853 C73.5304338,144.202101 71.3375375,142.007845 68.6324628,142.007845 L54.1883461,142.007845 C55.7428625,112.303301 71.3983705,85.13326 96.3108973,68.904409 L108.44807,89.9346346 C109.316782,91.4635079 110.937577,92.4094143 112.69519,92.4132807 C114.452803,92.417147 116.077739,91.4783804 116.953161,89.9533438 C117.828582,88.4283071 117.820261,86.5508336 116.931356,85.0336265 L104.799081,64.008302 C131.268199,50.3834086 162.682821,50.3834086 189.151939,64.008302 L177.019665,85.0336265 C176.130759,86.5508336 176.122438,88.4283071 176.99786,89.9533438 C177.873281,91.4783804 179.498217,92.417147 181.25583,92.4132807 C183.013443,92.4094143 184.634239,91.4635079 185.502951,89.9346346 L197.640123,68.904409 C222.571314,85.1223158 238.24608,112.294182 239.811654,142.007845 L215.571595,142.007845 C212.86652,142.007845 210.673624,144.202101 210.673624,146.908853 C210.673624,149.615605 212.86652,151.809861 215.571595,151.809861 L239.811654,151.809861 C238.251608,181.518964 222.586472,208.689917 197.664613,224.913297 Z" id="Shape" fill="#906DE4" fill-rule="nonzero"></path>
            <path d="M131.5,123 C139.508129,123 146,116.508129 146,108.5 C146,100.491871 139.508129,94 131.5,94 C123.491871,94 117,100.491871 117,108.5 C117,116.508129 123.491871,123 131.5,123 Z M131.5,103.666667 C134.169376,103.666667 136.333333,105.830624 136.333333,108.5 C136.333333,111.169376 134.169376,113.333333 131.5,113.333333 C128.830624,113.333333 126.666667,111.169376 126.666667,108.5 C126.666667,105.830624 128.830624,103.666667 131.5,103.666667 Z" id="Shape" fill="#906DE4" fill-rule="nonzero"></path>
            <path d="M113,141.500212 C113,135.635595 109.46724,130.348446 104.049041,128.104154 C98.6308411,125.859863 92.3942238,127.100403 88.2473134,131.247313 C84.1004031,135.394224 82.8598628,141.630841 85.1041545,147.049041 C87.3484462,152.46724 92.6355951,156 98.5002119,156 C106.508224,156 113,149.508224 113,141.500212 Z M98.5002119,146.333475 C95.8308746,146.333475 93.6669492,144.169549 93.6669492,141.500212 C93.6669492,138.830875 95.8308746,136.666949 98.5002119,136.666949 C101.169549,136.666949 103.333475,138.830875 103.333475,141.500212 C103.333475,144.169549 101.169549,146.333475 98.5002119,146.333475 Z" id="Shape" fill="#906DE4" fill-rule="nonzero"></path>
            <path d="M137.5,171 C129.491871,171 123,177.491871 123,185.5 C123,193.508129 129.491871,200 137.5,200 C145.508129,200 152,193.508129 152,185.5 C152,177.491871 145.508129,171 137.5,171 Z M137.5,190.333333 C134.830624,190.333333 132.666667,188.169376 132.666667,185.5 C132.666667,182.830624 134.830624,180.666667 137.5,180.666667 C140.169376,180.666667 142.333333,182.830624 142.333333,185.5 C142.333333,188.169376 140.169376,190.333333 137.5,190.333333 Z" id="Shape" fill="#906DE4" fill-rule="nonzero"></path>
            <path d="M201,171.5 C201,163.491871 194.508129,157 186.5,157 C178.491871,157 172,163.491871 172,171.5 C172,179.508129 178.491871,186 186.5,186 C194.508129,186 201,179.508129 201,171.5 Z M186.5,176.333333 C183.830624,176.333333 181.666667,174.169376 181.666667,171.5 C181.666667,168.830624 183.830624,166.666667 186.5,166.666667 C189.169376,166.666667 191.333333,168.830624 191.333333,171.5 C191.333333,174.169376 189.169376,176.333333 186.5,176.333333 Z" id="Shape" fill="#906DE4" fill-rule="nonzero"></path>
            <path d="M133,146.5 C133,154.508129 139.491871,161 147.5,161 C155.508129,161 162,154.508129 162,146.5 C162,138.491871 155.508129,132 147.5,132 C139.491871,132 133,138.491871 133,146.5 Z M152.333333,146.5 C152.333333,149.169376 150.169376,151.333333 147.5,151.333333 C144.830624,151.333333 142.666667,149.169376 142.666667,146.5 C142.666667,143.830624 144.830624,141.666667 147.5,141.666667 C150.169376,141.666667 152.333333,143.830624 152.333333,146.5 Z" id="Shape" fill="#906DE4" fill-rule="nonzero"></path>
            <path d="M181.5,132 C189.508129,132 196,125.508129 196,117.5 C196,109.491871 189.508129,103 181.5,103 C173.491871,103 167,109.491871 167,117.5 C167,125.508129 173.491871,132 181.5,132 Z M181.5,112.666667 C184.169376,112.666667 186.333333,114.830624 186.333333,117.5 C186.333333,120.169376 184.169376,122.333333 181.5,122.333333 C178.830624,122.333333 176.666667,120.169376 176.666667,117.5 C176.666667,114.830624 178.830624,112.666667 181.5,112.666667 Z" id="Shape" fill="#906DE4" fill-rule="nonzero"></path>
            <path d="M212.320809,125.973979 L217.026021,130.679191 C218.872247,132.462335 221.806915,132.436834 223.621874,130.621874 C225.436834,128.806915 225.462335,125.872247 223.679191,124.026021 L218.973979,119.320809 C217.127753,117.537665 214.193085,117.563166 212.378126,119.378126 C210.563166,121.193085 210.537665,124.127753 212.320809,125.973979 Z" id="Path" fill="#906DE4"></path>
            <path d="M209.541948,89.4580517 C207.597292,87.5139828 204.445004,87.5139828 202.500348,89.4580517 L197.520433,94.437967 C196.225871,95.6882966 195.706685,97.5398461 196.162424,99.2809711 C196.618163,101.022096 197.977904,102.381837 199.719029,102.837576 C201.460154,103.293315 203.311703,102.774129 204.562033,101.479567 L209.541948,96.4996519 C211.486017,94.5549957 211.486017,91.4027079 209.541948,89.4580517 Z" id="Path" fill="#906DE4"></path>
            <path d="M166,186 C163.238576,186 161,188.238576 161,191 L161,196 C161,198.761424 163.238576,201 166,201 C168.761424,201 171,198.761424 171,196 L171,191 C171,188.238576 168.761424,186 166,186 Z" id="Path" fill="#906DE4"></path>
            <path d="M93,186 C90.2385763,186 88,188.238576 88,191 L88,196 C88,198.761424 90.2385763,201 93,201 C95.7614237,201 98,198.761424 98,196 L98,191 C98,188.238576 95.7614237,186 93,186 Z" id="Path" fill="#906DE4"></path>
            <path d="M90.0260212,106.679191 C91.8722469,108.462335 94.8069152,108.436834 96.6218743,106.621874 C98.4368335,104.806915 98.462335,101.872247 96.6791905,100.026021 L91.9739788,95.3208095 C90.1277531,93.537665 87.1930848,93.5631665 85.3781257,95.3781257 C83.5631665,97.1930848 83.537665,100.127753 85.3208095,101.973979 L90.0260212,106.679191 Z" id="Path" fill="#906DE4"></path>
            <path d="M132,210 C129.238576,210 127,212.238576 127,215 L127,220 C127,222.761424 129.238576,225 132,225 C134.761424,225 137,222.761424 137,220 L137,215 C137,212.238576 134.761424,210 132,210 Z" id="Path" fill="#906DE4"></path>
            <path d="M201,191 C198.238576,191 196,193.238576 196,196 L196,201 C196,203.761424 198.238576,206 201,206 C203.761424,206 206,203.761424 206,201 L206,196 C206,193.238576 203.761424,191 201,191 Z" id="Path" fill="#906DE4"></path>
            <path d="M162,98 C164.761424,98 167,95.7614237 167,93 L167,88 C167,85.2385763 164.761424,83 162,83 C159.238576,83 157,85.2385763 157,88 L157,93 C157,95.7614237 159.238576,98 162,98 Z" id="Path" fill="#906DE4"></path>
            <path d="M138,79 L143,79 C145.761424,79 148,76.7614237 148,74 C148,71.2385763 145.761424,69 143,69 L138,69 C135.238576,69 133,71.2385763 133,74 C133,76.7614237 135.238576,79 138,79 Z" id="Path" fill="#906DE4"></path>
            <path d="M221,161 L216,161 C213.238576,161 211,163.238576 211,166 C211,168.761424 213.238576,171 216,171 L221,171 C223.761424,171 226,168.761424 226,166 C226,163.238576 223.761424,161 221,161 Z" id="Path" fill="#906DE4"></path>
            <path d="M78,128 L83,128 C85.7614237,128 88,125.761424 88,123 C88,120.238576 85.7614237,118 83,118 L78,118 C75.2385763,118 73,120.238576 73,123 C73,125.761424 75.2385763,128 78,128 Z" id="Path" fill="#906DE4"></path>
            <path d="M83,167 L78,167 C75.2385763,167 73,169.238576 73,172 C73,174.761424 75.2385763,177 78,177 L83,177 C85.7614237,177 88,174.761424 88,172 C88,169.238576 85.7614237,167 83,167 Z" id="Path" fill="#906DE4"></path>
            <path d="M186,147 C186,149.761424 188.238576,152 191,152 L196,152 C198.761424,152 201,149.761424 201,147 C201,144.238576 198.761424,142 196,142 L191,142 C188.238576,142 186,144.238576 186,147 Z" id="Path" fill="#906DE4"></path>
            <path d="M159.973979,212.320809 C158.127753,210.537665 155.193085,210.563166 153.378126,212.378126 C151.563166,214.193085 151.537665,217.127753 153.320809,218.973979 L158.026021,223.679191 C159.872247,225.462335 162.806915,225.436834 164.621874,223.621874 C166.436834,221.806915 166.462335,218.872247 164.679191,217.026021 L159.973979,212.320809 Z" id="Path" fill="#906DE4"></path>
            <path d="M121.541948,163.458052 C119.597292,161.513983 116.445004,161.513983 114.500348,163.458052 L109.520433,168.437967 C108.225871,169.688297 107.706685,171.539846 108.162424,173.280971 C108.618163,175.022096 109.977904,176.381837 111.719029,176.837576 C113.460154,177.293315 115.311703,176.774129 116.562033,175.479567 L121.541948,170.499652 C123.486017,168.554996 123.486017,165.402708 121.541948,163.458052 Z" id="Path" fill="#906DE4"></path>
        </g>
    </g>
</svg>